<svg xmlns="http://www.w3.org/2000/svg" viewBox="0 0 32 32" width="32" height="32">
  <defs>
    <linearGradient id="linkedin-gradient" x1="0%" y1="0%" x2="100%" y2="100%">
      <stop offset="0%" style="stop-color:#4DA3FF;stop-opacity:1" />
      <stop offset="100%" style="stop-color:#7C5CFF;stop-opacity:1" />
    </linearGradient>
  </defs>
  
  <!-- Background Circle -->
  <circle cx="16" cy="16" r="15" fill="#0A0A0A" stroke="url(#linkedin-gradient)" stroke-width="2"/>
  
  <!-- LinkedIn "in" Icon -->
  <g fill="url(#linkedin-gradient)">
    <!-- Letter "i" -->
    <rect x="12" y="10" width="2" height="8" rx="1"/>
    <circle cx="13" cy="8" r="1.5"/>
    
    <!-- Letter "n" -->
    <rect x="17" y="10" width="2" height="8" rx="1"/>
    <path d="M20 18 L20 10 L22 10 L22 12.5 L24 12.5 L24 10 L26 10 L26 18 L24 18 L24 14 L22 14 L22 18 Z" fill="url(#linkedin-gradient)"/>
  </g>
  
  <!-- Scale Arrow -->
  <path d="M6 24 L10 20 L12 22 L18 16 L20 18 L24 14" stroke="url(#linkedin-gradient)" stroke-width="1.5" fill="none" stroke-linecap="round"/>
  <path d="M22 12 L24 14 L22 16" stroke="url(#linkedin-gradient)" stroke-width="1.5" fill="none" stroke-linecap="round" stroke-linejoin="round"/>
</svg>
